# xmcd
#
# Track frame offsets:
#	150
#	28472
#	47660
#	64400
#	79475
#	97704
#	118267
#	136295
#
# Disc length: 2307 seconds
#
# Revision: 0
# Processed by: cddbd v1.5.1PL2 Copyright (c) Steve Scherf et al.
# Submitted via: dBpowerAMP V4.0
#
DISCID=71090108
DTITLE=Umberto Bindi - DI CORAGGIO NON SI MUORE
DYEAR=1900
DGENRE=
TTITLE0=L'approdo
TTITLE1=L'eco
TTITLE2=Chiara
TTITLE3=Un volo 
TTITLE4=Pianoforte
TTITLE5=Letti
TTITLE6=È tutto qua
TTITLE7=Medley
EXTD=
EXTT0=
EXTT1=
EXTT2=
EXTT3=
EXTT4=
EXTT5=
EXTT6=
EXTT7=
PLAYORDER=
